<svg xmlns="http://www.w3.org/2000/svg" xml:space="preserve" viewBox="194 91.6 267.3 236.4"><style>.st2{fill:none;stroke:#000;stroke-width:4;stroke-linecap:round;stroke-linejoin:round;stroke-miterlimit:10}</style><path id="Layer_7" d="M211.72 149c-7.72 26.76-4.89 67.7 4.28 94s22.32 37.83 45 54c19.59 13.96 45.53 22.63 69.58 22.87s48.4-8.26 65.95-24.72 27.71-40.96 25.31-64.9-17.93-46.51-40.1-55.86c20.68 4.37 38.67 18.09 50.89 35.34s19.07 37.83 22.74 58.65C457.98 221.86 450 180 450 180s-13.45-31.92-30.64-49.26c-18.8-18.97-44.92-29.45-71.36-33.21-19.52-2.78-40.02-2.03-58.11 5.82-29.76 12.91-49.52 45.86-46.9 78.2s27.43 61.67 58.88 69.62c-24.12-4.71-46.61-17.45-63.05-35.72s-26.73-41.97-27.1-66.45" style="fill:#f780b7"/><g id="Layer_2"><path d="M211.11 145.66c-7.41 36.03-4.17 74.19 10.02 108.74 11.61 20.31 28.73 37.44 49.04 49.06 20.3 11.62 44.24 17.21 67.53 17.16 30.42-1.54 60.58-16.46 75.37-43.08 10.25-18.44 12.17-41.32 5.13-61.21s-22.91-36.48-42.48-44.37c-19.57-7.9-36.01-8.23-54.88 1.21-3.76 1.88-7.2 4.67-11.28 8.49-2.7 2.53-5.5 7.18-5.5 12.68" class="st2"/><path d="M453.44 271.03c0-22.43-7.27-42.8-20.46-60.94s-35.77-33.45-57.11-40.36c-13.83-4.48-28.99-6.33-43.28-3.65s-24.91 9.83-34.41 20.99c.72 3.14 2.94 5.89 5.87 7.23h.05" class="st2"/></g><g id="Layer_2_copy"><path d="M453.39 271.27c7.43-36.18 4.18-74.49-10.05-109.17-11.64-20.39-28.8-37.59-49.16-49.26s-44.35-17.28-67.7-17.23c-30.49 1.54-60.72 16.53-75.56 43.26-10.28 18.52-12.2 41.48-5.15 61.46 7.05 19.97 22.97 36.62 42.58 44.55s36.09 8.26 55.01-1.21c3.77-1.89 7.22-4.69 11.31-8.52 2.7-2.54 5.52-7.21 5.52-12.73" class="st2"/><path d="M211.25 145.16c0 22.52 7.29 42.97 20.51 61.18 13.23 18.21 35.07 33.83 56.46 40.76 13.87 4.49 29.06 6.36 43.39 3.66 14.32-2.69 24.97-9.87 34.5-21.08-.72-3.15-2.95-5.91-5.88-7.26h-.05" class="st2"/></g><g id="Layer_4"><path d="M308.59 199.52c0-1.56.2-3.13.51-4.67.34-1.54.82-3.05 1.42-4.51 1.21-2.92 2.99-5.62 5.19-7.91 2.22-2.27 4.85-4.14 7.74-5.43a26.5 26.5 0 0 1 4.46-1.55c1.53-.35 3.09-.6 4.65-.64-1.54.27-3.06.61-4.52 1.11-1.47.47-2.9 1.06-4.26 1.77-2.72 1.42-5.24 3.23-7.36 5.44-2.14 2.19-3.87 4.76-5.21 7.52-1.32 2.78-2.2 5.78-2.62 8.87M305 203.44c-4.8 2.5-10.78 2.31-15.73.11-1.25-.56-2.44-1.23-3.56-2.01-1.12-.8-2.14-1.71-3.08-2.71-.93-1.01-1.76-2.09-2.51-3.23-.74-1.15-1.38-2.36-1.93-3.61-1.08-2.51-1.81-5.17-2.1-7.88-.29-2.72-.18-5.46.24-8.14.84-5.39 3.01-10.47 5.87-15.03l.38-.6.14.68c.23 1.1 1.98 1.64 2.82.8.86-.83.38-2.67-.87-2.96l-.09-.02v-.09c.04-1.36.56-2.69 1.43-3.7-.8 1.07-1.22 2.4-1.2 3.7l-.09-.11c.72.13 1.27.74 1.49 1.4.23.66.16 1.5-.36 2.07-.53.57-1.37.71-2.08.53-.7-.18-1.4-.7-1.59-1.49l.52.08c-2.7 4.59-4.66 9.64-5.46 14.87s-.22 10.66 1.84 15.52c2.04 4.84 5.71 9.07 10.51 11.31 4.71 2.24 10.47 2.7 15.41.51"/><path d="M294.25 190.2c-.62.04-1.13-.53-1.28-1.11-.17-.61.06-1.25.36-1.77.65-1.04 1.46-1.89 2.19-2.84 1.53-1.82 3.19-3.55 4.89-5.22 3.44-3.32 7.28-6.21 11.31-8.77 4.08-2.49 8.38-4.63 12.86-6.27 2.24-.83 4.53-1.51 6.83-2.11 1.15-.3 2.33-.51 3.49-.76 1.17-.22 2.35-.39 3.52-.57l-3.46.83c-1.14.33-2.29.61-3.42.98-2.26.69-4.5 1.45-6.69 2.36-4.38 1.77-8.62 3.88-12.61 6.4-4.03 2.46-7.8 5.32-11.32 8.48-1.75 1.59-3.45 3.24-5.05 4.98-.78.88-1.66 1.71-2.34 2.65-.31.47-.55 1.04-.43 1.6.11.54.52 1.12 1.15 1.14M440.97 223.99c-1.36-10.59-4.23-20.97-8.59-30.68-4.38-9.69-10.16-18.76-17.22-26.71l.84-.43.49 2.12.1.43-.42.15c-.73.26-1.54.23-2.24-.02a4.3 4.3 0 0 1-1.81-1.21c-.49-.54-.86-1.18-1.05-1.91-.19-.72-.15-1.53.17-2.23l.13-.3.32.01 1.92.04-.43.72c-5-8.94-11.89-16.77-19.91-23.15-8.04-6.35-17.31-11.2-27.19-14.09 9.99 2.54 19.43 7.23 27.63 13.53 8.23 6.27 15.17 14.23 20.31 23.23l.42.73-.85-.01-1.92-.03.45-.29c-.45.99-.06 2.23.72 3.07.77.84 1.97 1.33 3 .97l-.32.58-.48-2.12-.42-1.88 1.26 1.45c7.05 8.07 12.94 17.2 17.15 27.06 4.27 9.83 6.96 20.33 7.94 30.97M353.94 125.54c-3.65-.42-7.31-.61-10.96-.5-3.65.13-7.28.5-10.86 1.18-3.58.66-7.11 1.63-10.55 2.83l-2.57.96-2.52 1.07-2.5 1.15c-.81.42-1.63.84-2.46 1.25.77-.5 1.55-.99 2.33-1.48l2.41-1.36 2.49-1.21 2.54-1.1c3.43-1.39 7.01-2.4 10.64-3.09 3.64-.67 7.34-1.02 11.04-.96 3.69.05 7.38.44 10.97 1.26M310.76 135.06c-.15 1.12-.94 2.14-2.01 2.65-.54.26-1.16.33-1.71.37-.56.03-1.07.09-1.58.24-1.01.29-2 .77-3.02 1.22-1.01.44-2.02.89-3 1.38-1.96.96-3.79 2.15-5.5 3.53-.85.69-1.66 1.43-2.42 2.23-.79.77-1.5 1.62-2.21 2.48.52-.99 1.16-1.91 1.84-2.81.7-.88 1.47-1.71 2.28-2.49 1.63-1.56 3.54-2.84 5.56-3.84 1.01-.49 2.04-.94 3.08-1.35 1.03-.39 2.06-.88 3.22-1.1 1.18-.27 2.33.06 3.28-.31.99-.31 1.83-1.14 2.19-2.2"/><path d="M306.68 141.72c.47-.33.39-.97.14-1.37-.25-.45-.73-.62-1.21-.59-.97.03-1.92.63-2.88 1.08-1.88.99-3.7 2.09-5.4 3.35s-3.29 2.67-4.79 4.18c-.74.77-1.46 1.55-2.13 2.39-.71.8-1.33 1.68-1.98 2.54.46-.98 1-1.92 1.59-2.83s1.27-1.76 1.95-2.61c1.4-1.67 3.02-3.16 4.76-4.47 1.77-1.28 3.66-2.4 5.67-3.24 1.01-.36 2-.93 3.22-.87.3.03.59.11.86.28s.45.42.57.68c.25.49.17 1.24-.37 1.48M313.24 135.73c-.57-.16-1.13-.33-1.69-.51l-.24-.08.21-.18c3-2.49 6.49-4.39 10.16-5.73 3.68-1.33 7.57-2.1 11.46-2.1-3.81.73-7.53 1.69-11.12 3.03-3.59 1.33-7.02 3.04-10.33 5.04l-.03-.25c.53.24 1.06.5 1.58.78M283.85 164.88l-.65-.67h.1c-1.47 2.43-2.64 5.02-3.4 7.72-.77 2.7-1.19 5.49-1.19 8.28-.02 2.79.4 5.58 1.15 8.29.76 2.7 1.91 5.3 3.36 7.76-1.79-2.23-3.15-4.8-4.08-7.53-.95-2.72-1.41-5.62-1.42-8.51 0-2.9.48-5.79 1.41-8.52.94-2.73 2.29-5.31 4.07-7.55l.05-.07.05.06zM407.8 163.92c.49-.28.77-.8.86-1.33.1-.53 0-1.07-.21-1.57-.42-.99-1.14-1.86-1.76-2.77-1.24-1.83-2.6-3.57-4.01-5.25-2.83-3.37-5.92-6.53-9.33-9.31-3.35-2.85-6.99-5.35-10.8-7.55-1.9-1.12-3.87-2.12-5.87-3.05-.99-.49-2.02-.9-3.03-1.35l-3.09-1.22c1.06.32 2.13.61 3.18.97 1.04.38 2.1.72 3.13 1.15 2.05.85 4.08 1.77 6.04 2.83 3.93 2.09 7.63 4.63 11.07 7.46 3.4 2.88 6.55 6.08 9.28 9.59.67.89 1.37 1.76 1.98 2.69.64.91 1.27 1.82 1.84 2.78.56.96 1.22 1.86 1.6 2.95.18.54.25 1.14.11 1.69-.12.54-.48 1.06-.99 1.29M415.78 171.93c.1-.32.21-.63.33-.94l.05-.13.14.09c2.29 1.51 4.26 3.51 5.85 5.75 1.59 2.25 2.84 4.75 3.48 7.42-1.33-2.39-2.7-4.68-4.28-6.84-1.57-2.16-3.33-4.18-5.21-6.14l.19-.04c-.18.28-.36.56-.55.83"/></g><g id="Layer_4_copy"><path d="M355.45 218.71c0 1.56-.2 3.13-.51 4.67-.34 1.54-.82 3.05-1.42 4.51a25.7 25.7 0 0 1-5.19 7.91c-2.22 2.27-4.85 4.14-7.74 5.43a26.5 26.5 0 0 1-4.46 1.55c-1.53.35-3.09.6-4.65.64 1.54-.27 3.06-.61 4.52-1.11 1.47-.47 2.9-1.06 4.26-1.77 2.72-1.42 5.24-3.23 7.36-5.44 2.14-2.19 3.87-4.76 5.21-7.52 1.33-2.78 2.2-5.78 2.62-8.87M359.04 214.79c4.8-2.5 10.78-2.31 15.73-.11 1.25.56 2.44 1.23 3.56 2.01 1.12.8 2.14 1.71 3.08 2.71.93 1.01 1.76 2.09 2.51 3.23.74 1.15 1.38 2.36 1.93 3.61 1.08 2.51 1.81 5.17 2.1 7.88.29 2.72.18 5.46-.24 8.14-.84 5.39-3.01 10.47-5.87 15.03l-.38.6-.14-.68c-.23-1.1-1.98-1.64-2.82-.8-.86.83-.38 2.67.87 2.96l.09.02v.09a6 6 0 0 1-1.43 3.7c.8-1.07 1.22-2.4 1.2-3.7l.09.11c-.72-.13-1.27-.74-1.49-1.4-.23-.66-.16-1.5.36-2.07.53-.57 1.37-.71 2.08-.53.7.18 1.4.7 1.59 1.49l-.52-.08c2.7-4.59 4.66-9.64 5.46-14.87s.22-10.66-1.84-15.52c-2.04-4.84-5.71-9.07-10.51-11.31-4.71-2.24-10.47-2.69-15.41-.51"/><path d="M369.8 228.03c.62-.04 1.13.53 1.28 1.11.17.61-.06 1.25-.36 1.77-.65 1.04-1.46 1.89-2.19 2.84-1.53 1.82-3.19 3.55-4.89 5.22-3.44 3.32-7.28 6.21-11.31 8.77-4.08 2.49-8.38 4.63-12.86 6.27-2.24.83-4.53 1.51-6.83 2.11-1.15.3-2.33.51-3.49.76-1.17.22-2.35.39-3.52.57l3.46-.83c1.14-.33 2.29-.61 3.42-.98 2.26-.69 4.5-1.45 6.69-2.36 4.38-1.77 8.62-3.88 12.61-6.4 4.03-2.46 7.8-5.32 11.32-8.48 1.75-1.59 3.45-3.24 5.05-4.98.78-.88 1.66-1.71 2.34-2.65.31-.47.55-1.04.43-1.6-.12-.54-.53-1.12-1.15-1.14M223.07 194.25c1.36 10.59 4.23 20.97 8.59 30.68 4.38 9.69 10.16 18.76 17.22 26.71l-.84.43-.49-2.12-.1-.43.42-.15c.73-.26 1.54-.23 2.24.02.71.24 1.32.67 1.81 1.21s.86 1.18 1.05 1.91c.19.72.15 1.53-.17 2.23l-.13.3-.32-.01-1.92-.04.43-.72c5 8.94 11.89 16.77 19.91 23.15 8.04 6.35 17.31 11.2 27.19 14.09-9.99-2.54-19.43-7.23-27.63-13.53-8.23-6.27-15.17-14.23-20.31-23.23l-.42-.75.85.01 1.92.03-.45.29c.45-.99.06-2.23-.72-3.07-.77-.84-1.97-1.33-3-.97l.32-.58.48 2.12.42 1.88-1.26-1.45c-7.05-8.07-12.94-17.2-17.15-27.06-4.27-9.82-6.95-20.32-7.94-30.95M310.11 292.69c3.65.42 7.31.61 10.96.5 3.65-.13 7.28-.5 10.86-1.18 3.58-.66 7.11-1.63 10.55-2.83l2.57-.96 2.52-1.07 2.5-1.15c.81-.42 1.63-.84 2.46-1.25-.77.5-1.55.99-2.33 1.48l-2.41 1.36-2.49 1.21-2.54 1.1c-3.43 1.39-7.01 2.4-10.64 3.09-3.64.67-7.34 1.02-11.04.96-3.7-.04-7.39-.43-10.97-1.26M353.28 283.17c.15-1.12.94-2.14 2.01-2.65.54-.26 1.16-.33 1.71-.37.56-.03 1.07-.09 1.58-.23 1.01-.29 2-.77 3.02-1.22 1.01-.44 2.02-.89 3-1.38 1.96-.96 3.79-2.15 5.5-3.53.85-.69 1.66-1.43 2.42-2.23.79-.77 1.5-1.62 2.21-2.48-.52.99-1.16 1.91-1.84 2.81-.7.88-1.47 1.71-2.28 2.49-1.63 1.56-3.54 2.84-5.56 3.84-1.01.49-2.04.94-3.08 1.35-1.03.39-2.06.88-3.22 1.1-1.18.27-2.33-.06-3.28.31-.99.3-1.82 1.14-2.19 2.19"/><path d="M357.36 276.52c-.47.33-.39.97-.14 1.37.25.45.73.62 1.21.59.97-.03 1.92-.63 2.88-1.08 1.88-.99 3.7-2.09 5.4-3.35s3.29-2.67 4.79-4.18c.74-.77 1.46-1.55 2.13-2.39.71-.8 1.33-1.68 1.98-2.54-.46.98-1 1.92-1.59 2.83s-1.27 1.76-1.95 2.61c-1.4 1.67-3.02 3.16-4.76 4.47-1.77 1.28-3.66 2.4-5.67 3.24-1.01.36-2 .93-3.22.87-.3-.03-.59-.11-.86-.28a1.55 1.55 0 0 1-.57-.68c-.25-.49-.17-1.25.37-1.48M350.8 282.51c.57.16 1.13.33 1.69.51l.24.08-.21.18c-3 2.49-6.49 4.39-10.16 5.73-3.68 1.33-7.57 2.1-11.46 2.1 3.81-.73 7.53-1.69 11.12-3.03 3.59-1.33 7.02-3.04 10.33-5.04l.03.25c-.53-.25-1.06-.51-1.58-.78M380.2 253.35l.65.67h-.1c1.47-2.43 2.64-5.02 3.4-7.72.77-2.7 1.19-5.49 1.19-8.28.02-2.79-.4-5.58-1.15-8.29-.76-2.7-1.91-5.3-3.36-7.76 1.79 2.23 3.15 4.8 4.08 7.53.95 2.72 1.41 5.62 1.42 8.51 0 2.9-.48 5.79-1.41 8.52-.94 2.73-2.29 5.31-4.07 7.55l-.05.07-.05-.06zM256.24 254.32c-.49.28-.77.8-.86 1.33-.1.53 0 1.07.21 1.57.42.99 1.14 1.86 1.76 2.77 1.24 1.83 2.6 3.57 4.01 5.25 2.83 3.37 5.92 6.53 9.33 9.31 3.35 2.85 6.99 5.35 10.8 7.55 1.9 1.12 3.87 2.12 5.87 3.05.99.49 2.02.9 3.03 1.35l3.09 1.22c-1.06-.32-2.13-.61-3.18-.97-1.04-.38-2.1-.72-3.13-1.15-2.05-.85-4.08-1.77-6.04-2.83-3.93-2.09-7.63-4.63-11.07-7.46-3.4-2.88-6.55-6.08-9.28-9.59-.67-.89-1.37-1.76-1.98-2.69-.64-.91-1.27-1.82-1.84-2.78-.56-.96-1.22-1.86-1.6-2.95-.18-.54-.25-1.14-.11-1.69.12-.55.48-1.06.99-1.29M248.26 246.3c-.1.32-.21.63-.33.94l-.05.13-.14-.09c-2.29-1.51-4.26-3.51-5.85-5.75-1.59-2.25-2.84-4.75-3.48-7.42 1.33 2.39 2.7 4.68 4.28 6.84 1.57 2.16 3.33 4.18 5.21 6.14l-.19.04c.18-.28.36-.55.55-.83"/></g><path id="Layer_6" d="M198 234c.62 0 53.87.13 63-9 8.94-8.94 9-81 9-81s-.07 71.93 9 81c9.04 9.04 63 9 63 9s-54.14.14-63 9c-8.88 8.88-9 81-9 81s-.18-72.18-9-81c-9.11-9.11-63-9-63-9" style="fill:#e0f369;stroke:#000;stroke-width:3;stroke-linecap:round;stroke-linejoin:round;stroke-miterlimit:10"/></svg>